# xmcd
#
# Track frame offsets: 
#        150
#        16910
#        34580
#        52875
#        70820
#        89200
#        107280
#        125925
#        143070
#        160875
#        180285
#        195150
#        214630
#        232920
#        251681
#        270150
#
# Disc length: 3822 seconds
#
# Revision: 0
# Processed by: cddbd v1.5.2PL0 Copyright (c) Steve Scherf et al.
# Submitted via: ExactAudioCopyFreeDBPlugin 1.0
#
DISCID=ca0eec10
DTITLE=31B - STE20试音极品TESTCD
DYEAR=2015
DGENRE=STE
TTITLE0=草原上升起不落的太阳
TTITLE1=众手浇开幸福花
TTITLE2=祝酒歌
TTITLE3=送别
TTITLE4=在希望的田野上
TTITLE5=校园的早晨
TTITLE6=草原晨曲
TTITLE7=大海啊，故乡
TTITLE8=踏浪
TTITLE9=花心
TTITLE10=喀秋莎
TTITLE11=常回家看看
TTITLE12=快乐老家
TTITLE13=军港之夜
TTITLE14=请到天涯海角来
TTITLE15=毛主席话儿记心上
EXTD=
EXTT0=
EXTT1=
EXTT2=
EXTT3=
EXTT4=
EXTT5=
EXTT6=
EXTT7=
EXTT8=
EXTT9=
EXTT10=
EXTT11=
EXTT12=
EXTT13=
EXTT14=
EXTT15=
PLAYORDER=
